<svg width="119" height="32" viewBox="0 0 119 32" fill="none" xmlns="http://www.w3.org/2000/svg">
<g clip-path="url(#clip0_626_7835)">
<path d="M72.646 31.6228C72.1877 31.7654 71.2831 32 70.2139 32C69.0155 32 68.0285 31.7349 67.2532 31.0927C66.5715 30.5225 66.1488 29.6053 66.1488 28.5352C66.1604 26.4871 67.7819 24.9891 70.437 24.9891C71.3536 24.9891 72.0703 25.1624 72.4111 25.3052L72.1643 26.0283C71.7412 25.8657 71.2125 25.7331 70.4138 25.7331C68.4868 25.7331 67.2296 26.7723 67.2296 28.4946C67.2296 30.2372 68.4396 31.2659 70.2845 31.2659C70.9541 31.2659 71.4124 31.1846 71.6474 31.0828V29.0346H70.0377V28.3215H72.646V31.6228Z" fill="#FCFCFC"/>
<path d="M78.3094 28.7087H75.2312V31.1847H78.6619V31.9287H74.209V25.0607H78.4858V25.8045H75.2312V27.975H78.3094V28.7087Z" fill="#FCFCFC"/>
<path d="M81.0119 28.2808H82.0575C83.1503 28.2808 83.8434 27.7611 83.8434 26.9765C83.8434 26.09 83.1033 25.7024 82.0225 25.6924C81.529 25.6924 81.1763 25.7332 81.0119 25.774V28.2808ZM79.9897 25.1524C80.5068 25.0607 81.2469 25.0097 81.9519 25.0097C83.0445 25.0097 83.7496 25.1829 84.2431 25.5703C84.6426 25.8758 84.8658 26.3446 84.8658 26.8747C84.8658 27.7815 84.2077 28.3826 83.3735 28.6272V28.6576C83.9845 28.8411 84.3487 29.3304 84.5368 30.0437C84.7954 31.0016 84.9832 31.6637 85.1475 31.9287H84.0903C83.9611 31.7351 83.7848 31.1439 83.5614 30.2878C83.3265 29.3404 82.9037 28.9837 81.9753 28.9533H81.0119V31.9287H79.9897V25.1524Z" fill="#FCFCFC"/>
<path d="M92.9848 28.9125C92.9261 27.9547 92.8555 26.8033 92.8672 25.9471H92.8319C92.5615 26.7522 92.2328 27.6082 91.8332 28.5558L90.4349 31.8879H89.6597L88.3789 28.6168C88.003 27.6489 87.6856 26.7625 87.4625 25.9471H87.4389C87.4155 26.8033 87.3569 27.9547 87.2863 28.9837L87.0748 31.9287H86.0995L86.652 25.0607H87.956L89.3071 28.3826C89.6363 29.2283 89.9064 29.9826 90.1062 30.6958H90.1412C90.3411 30.0029 90.6231 29.2485 90.9754 28.3826L92.3856 25.0607H93.6897L94.1832 31.9287H93.1846L92.9848 28.9125Z" fill="#FCFCFC"/>
<path d="M99.5179 29.0754L98.7424 27.0985C98.566 26.6504 98.4487 26.243 98.3311 25.8453H98.3075C98.1903 26.2529 98.061 26.6707 97.9082 27.0886L97.1327 29.0754H99.5179ZM96.9212 29.7682L96.0987 31.9287H95.0411L97.7318 25.0607H98.9658L101.668 31.9287H100.575L99.7294 29.7682H96.9212Z" fill="#FCFCFC"/>
<path d="M102.831 31.9287V25.0607H103.947L106.485 28.5353C107.073 29.3404 107.531 30.0639 107.907 30.7668L107.931 30.7568C107.836 29.8396 107.813 29.0043 107.813 27.9343V25.0607H108.777V31.9287H107.743L105.228 28.4437C104.676 27.6794 104.147 26.8949 103.748 26.1511L103.712 26.1611C103.771 27.0272 103.795 27.8526 103.795 28.994V31.9287H102.831Z" fill="#FCFCFC"/>
<path d="M112.243 31.9287V29.0143L109.741 25.0607H110.904L112.02 26.9562C112.325 27.4758 112.56 27.8937 112.807 28.3726H112.831C113.054 27.9239 113.324 27.4758 113.63 26.9562L114.769 25.0607H115.933L113.277 29.0043V31.9287H112.243Z" fill="#FCFCFC"/>
<path d="M1.21524 21.71L5.61394 0.984863H21.3779L20.2431 6.27501H10.3255L9.90132 8.28867H19.0124L17.8901 13.5154H8.78659L8.18452 16.3688H18.5629L17.4349 21.71H1.21524Z" fill="#B31D23"/>
<path d="M24.0944 21.8975C21.0077 21.8975 19.0651 20.843 18.3204 18.7628C17.9432 17.6652 17.9496 16.2556 18.3358 14.4408L20.4967 4.29223H25.7448L23.4962 14.8511C23.2448 16.0453 23.3192 16.5134 23.3629 16.6588L23.3766 16.7102C23.4118 16.8546 23.5047 17.2394 24.6732 17.2394C25.9314 17.2394 26.3945 16.7593 26.633 16.3985L26.6585 16.3618C26.8422 16.1095 27.111 15.5719 27.3486 14.4428L29.5099 4.29223H34.7582L32.5096 14.8511C32.1357 16.6088 31.5491 18.0157 30.7658 19.0319C29.2837 20.9349 27.0402 21.8975 24.0944 21.8975Z" fill="#B31D23"/>
<path d="M40.8766 11.0347C41.6012 11.0347 41.9734 10.9418 42.1581 10.8639C42.428 10.7516 42.7515 10.5362 42.9018 9.84494C42.9341 9.6913 43.0297 9.15368 42.841 9.04394C42.8201 9.03158 42.5855 8.90856 41.8379 8.90856H38.9351L38.4842 11.0347H40.8766ZM40.6626 21.5044L40.5883 20.6002C40.5582 20.233 40.5435 19.9398 40.5435 19.7026C40.5514 19.2022 40.6065 18.7 40.7075 18.1956L40.9861 16.7823C41.1282 16.0656 41.0858 15.7539 41.0626 15.6572C40.994 15.6301 40.7164 15.5268 40.0186 15.5268H37.53L36.2689 21.5044H31.1443L34.7974 4.29216H43.0679C44.2969 4.31558 45.203 4.47401 45.857 4.77537C46.5507 5.09537 47.1074 5.5749 47.5117 6.20032C47.8271 6.69073 48.0457 7.23666 48.1626 7.82537C48.281 8.4222 48.2647 9.09299 48.1143 9.81985C47.9246 10.6867 47.5292 11.5299 46.9364 12.3381C46.6246 12.7633 46.2541 13.1284 45.8279 13.4322C45.9774 13.6417 46.0956 13.8704 46.1824 14.1176C46.4283 14.8191 46.4176 15.7727 46.1492 17.0329L45.9324 18.056C45.7512 18.9284 45.737 19.2046 45.737 19.2685C45.737 19.3092 45.74 19.3367 45.7429 19.3538L46.2298 19.6995L45.8884 21.5044H40.6626Z" fill="#B31D23"/>
<path d="M56.0153 8.49532C55.0132 8.49532 54.1551 8.85957 53.3921 9.60912C52.5891 10.3981 52.0184 11.5669 51.6963 13.0826C51.3855 14.5418 51.4403 15.6398 51.8593 16.3465C52.0914 16.739 52.538 17.2602 53.7309 17.2602C54.7316 17.2602 55.5853 16.8965 56.3412 16.1486C57.1385 15.3596 57.7065 14.1901 58.0297 12.6728C58.3342 11.2192 58.2796 10.1189 57.8665 9.40569C57.6403 9.01487 57.2023 8.49532 56.0153 8.49532ZM53.1624 21.9282C50.6833 21.9282 48.871 21.2065 47.7749 19.7825C46.3527 18.0904 45.9602 15.6984 46.608 12.6715C47.2457 9.6674 48.5899 7.36215 50.6028 5.82193C52.1751 4.49806 54.187 3.82672 56.5838 3.82672C59.0576 3.82672 60.8676 4.54564 61.9649 5.9645C63.3983 7.60357 63.7932 9.99791 63.1386 13.0822C62.5057 16.0385 61.1591 18.3449 59.1361 19.9386C57.5883 21.2514 55.5694 21.9282 53.1624 21.9282Z" fill="#B31D23"/>
<path d="M64.0165 21.5044L66.673 8.96057H62.0906L63.092 4.29216H77.4469L76.4455 8.96057H71.8893L69.233 21.5044H64.0165Z" fill="#B31D23"/>
<path d="M72.6738 21.5044L76.3268 4.29216H89.515L88.5144 8.96057H80.4548L80.1879 10.228H87.5938L86.6016 14.8446H79.204L78.7926 16.7948H87.2271L86.2331 21.5044H72.6738Z" fill="#B31D23"/>
<path d="M93.1516 21.9282C90.6248 21.9282 88.7618 21.0738 87.6146 19.3882C86.5098 17.7475 86.2451 15.538 86.8243 12.8172C87.4334 9.94755 88.7035 7.69173 90.5991 6.11241C92.2839 4.71237 94.2237 4.00285 96.366 4.00285C99.3243 4.00285 101.333 5.03679 102.335 7.0759C102.881 8.20981 103.059 9.36492 102.867 10.516L102.73 11.3389H97.791L97.7303 10.4193C97.6824 9.6934 97.5336 9.37286 97.4494 9.2467C97.3561 9.10432 97.0857 8.69155 95.9112 8.69155C95.0315 8.69155 94.2733 9.04714 93.5927 9.77917C92.8524 10.5761 92.315 11.7528 91.9959 13.2762C91.6903 14.7051 91.7293 15.7838 92.1084 16.3996C92.4522 16.9588 92.9398 17.2082 93.6887 17.2082C94.5454 17.2082 95.2326 16.9417 95.7899 16.3941C96.1166 16.078 96.4449 15.5774 96.7717 14.9006L97.0401 14.3437H102.234L101.732 15.6765C101.042 17.5044 99.934 19.0138 98.4388 20.1628C96.915 21.3344 95.1357 21.9282 93.1516 21.9282Z" fill="#B31D23"/>
<path d="M108.958 21.5044L110.395 14.7002H106.453L105.016 21.5044H99.8501L103.503 4.29216H108.67L107.43 10.1041H111.371L112.61 4.29216H117.785L114.132 21.5044H108.958Z" fill="#B31D23"/>
<path d="M43.3365 8.19276C43.0264 8.01367 42.5266 7.92385 41.8379 7.92385H38.1376L37.2693 12.019H40.8766C41.5933 12.019 42.1482 11.9364 42.5407 11.7708C43.2366 11.4816 43.6775 10.9091 43.8637 10.0543C44.0565 9.13042 43.8808 8.51017 43.3365 8.19276Z" fill="#FCFCFC"/>
<path d="M57.0657 12.4737C56.7846 13.794 56.3075 14.7968 55.6492 15.4482C55.079 16.0124 54.4694 16.2752 53.7309 16.2752C52.9609 16.2752 52.8075 16.0161 52.7061 15.8448C52.5434 15.5701 52.3212 14.8733 52.6588 13.2881C52.9403 11.9639 53.4188 10.9628 54.0815 10.3121C54.6595 9.74439 55.2739 9.47991 56.0153 9.47991C56.7722 9.47991 56.9182 9.73204 57.0148 9.89895C57.1767 10.1786 57.3985 10.8848 57.0657 12.4737ZM56.0153 7.51052C54.7542 7.51052 53.65 7.97585 52.7025 8.9065C51.7549 9.83735 51.0985 11.1609 50.7335 12.8778C50.3681 14.5939 50.461 15.9178 51.0124 16.8486C51.5636 17.7793 52.47 18.2446 53.7309 18.2446C54.9918 18.2446 56.0927 17.7793 57.0333 16.8486C57.974 15.9178 58.6269 14.5939 58.9923 12.8778C59.3505 11.1679 59.259 9.8462 58.7182 8.91185C58.1773 7.97751 57.2762 7.51052 56.0153 7.51052Z" fill="#FCFCFC"/>
<path d="M113.335 20.5194H110.172L111.609 13.7152H105.655L104.218 20.5194H101.065L101.556 18.206L102.585 13.3587L102.805 12.3233L103.72 8.01323L104.301 5.2764H107.453L106.213 11.0883H112.167L113.407 5.2764H116.57L113.335 20.5194ZM97.8393 19.382C96.4849 20.4227 94.9222 20.9433 93.1516 20.9433C90.9603 20.9433 89.3852 20.24 88.4279 18.8335C88.2508 18.5705 88.1079 18.2831 87.982 17.9836C87.7121 17.3421 87.5585 16.6179 87.5233 15.8097C87.5156 15.633 87.5141 15.4519 87.5176 15.2671C87.5309 14.573 87.6151 13.8285 87.7868 13.0221C87.9643 12.1859 88.2061 11.417 88.4987 10.7012C88.6051 10.4413 88.7186 10.1892 88.8401 9.94518C89.0632 9.49664 89.3078 9.07078 89.5821 8.67609C90.0557 7.9946 90.603 7.39057 91.229 6.86881C92.7383 5.61447 94.4503 4.98702 96.366 4.98702C98.9295 4.98702 100.625 5.82804 101.452 7.51027C101.545 7.70448 101.623 7.89906 101.69 8.09364C101.951 8.84503 102.022 9.59844 101.896 10.3539H101.21H98.7125C98.6642 9.62353 98.5162 9.0717 98.2681 8.69951C97.8339 8.03757 97.0481 7.70651 95.9112 7.70651C94.7535 7.70651 93.7407 8.17387 92.8723 9.10785C92.0042 10.0422 91.3907 11.364 91.0323 13.0739C90.667 14.7833 90.7464 16.064 91.2701 16.9153C91.794 17.7671 92.6002 18.1926 93.6887 18.1926C94.8053 18.1926 95.7357 17.8274 96.4797 17.0961C96.8862 16.7034 97.279 16.114 97.6581 15.3281H100.155H100.811C100.522 16.0928 100.153 16.7886 99.7104 17.4218C99.1913 18.1645 98.57 18.82 97.8393 19.382ZM85.4347 20.5194H73.8888L76.1332 9.94518L77.1241 5.2764H78.2421H88.2974L87.7315 7.91732C87.7191 7.93669 87.7073 7.95624 87.6951 7.9756H79.6564L78.9743 11.2124H86.2298H86.3754L85.8065 13.8598H85.6521H78.4058L77.5789 17.7791H85.8375C85.8685 17.896 85.9044 18.0102 85.9404 18.1239L85.4347 20.5194ZM71.0916 7.9756L68.4355 20.5194H65.2311L67.8877 7.9756H64.1189H63.3086L63.5967 6.63236L63.8874 5.2764H75.1118L74.5388 7.9756H71.0916ZM62.1758 12.8775C61.5901 15.6143 60.3738 17.7101 58.5272 19.1647C57.128 20.3506 55.3399 20.9433 53.1624 20.9433C50.9847 20.9433 49.4447 20.3506 48.542 19.1647C47.8114 18.303 47.4081 17.2108 47.3157 15.8993C47.352 15.4686 47.3502 15.0756 47.3109 14.7143C47.3415 14.2322 47.4131 13.7213 47.515 13.189C47.5351 13.0839 47.5475 12.9845 47.5705 12.8775C47.9119 11.2687 48.4673 9.89889 49.2228 8.75244C49.7786 7.90921 50.4395 7.18309 51.219 6.58994C52.6179 5.40403 54.4064 4.81107 56.5838 4.81107C58.7613 4.81107 60.3013 5.40403 61.2043 6.58994C61.3154 6.71517 61.4104 6.85276 61.5068 6.98943C62.069 7.78582 62.3857 8.76867 62.4477 9.94518C62.4938 10.8189 62.4058 11.7941 62.1758 12.8775ZM45.1867 16.8276L44.9696 17.8514C44.8249 18.5478 44.7526 19.0199 44.7526 19.2682C44.7526 19.6608 44.8835 19.9506 45.1454 20.1367L45.073 20.5194H41.5693C41.5415 20.1817 41.5279 19.9091 41.5279 19.7023C41.5345 19.275 41.5828 18.8372 41.6726 18.389L41.9517 16.9725C42.1445 16.0002 42.1049 15.3521 41.8328 15.028C41.5605 14.704 40.9557 14.5419 40.0186 14.5419H36.7318L35.4707 20.5194H32.3595L35.5947 5.2764H43.0679C44.129 5.29724 44.9215 5.428 45.4452 5.66943C45.9687 5.91104 46.3822 6.26589 46.6855 6.73472C46.9336 7.12075 47.1041 7.54808 47.1972 8.0171C47.2107 8.08479 47.2167 8.15672 47.2258 8.22717C47.2785 8.64418 47.2567 9.10656 47.1506 9.62002C46.992 10.3439 46.6561 11.0557 46.1429 11.7552C46.008 11.9391 45.8579 12.1069 45.6963 12.2626C45.2422 12.6992 44.6842 13.026 44.0187 13.2396C44.6595 13.5221 45.0711 13.9236 45.2538 14.4437C45.289 14.5439 45.3141 14.6573 45.334 14.7777C45.3154 15.1689 45.3156 15.5492 45.3364 15.9172C45.3055 16.1955 45.257 16.4967 45.1867 16.8276ZM29.9862 18.4305C28.6975 20.0852 26.7336 20.9124 24.0944 20.9124C21.4551 20.9124 19.8393 20.0852 19.2469 18.4305C19.2218 18.3578 19.2026 18.2791 19.1818 18.2018C18.9856 17.4701 18.9788 16.5312 19.1626 15.3838C19.2006 15.1455 19.2439 14.9017 19.2985 14.6457L20.8711 7.25981L21.2935 5.2764H21.464H24.5287L22.5337 14.6457C22.3131 15.6933 22.2755 16.4589 22.42 16.9414C22.6268 17.7962 23.3778 18.2237 24.6732 18.2237C25.9618 18.2237 26.8887 17.7962 27.4539 16.9414C27.8054 16.4589 28.0912 15.6933 28.3118 14.6457L30.3066 5.2764H33.542L31.5471 14.6457C31.2023 16.2656 30.6821 17.5273 29.9862 18.4305ZM9.39824 15.3838L9.58461 14.5002H17.3227C17.2628 14.8045 17.2132 15.0988 17.1741 15.3838H9.39824ZM16.6369 20.7254H2.43033L6.41112 1.9693H20.1599L19.8731 3.307L19.4476 5.29041H19.2778H9.52728L8.68778 9.2731H17.7942L17.0948 12.5308H7.98837L6.97079 17.3532H17.0734H17.349L17.1689 18.206L16.6369 20.7254ZM100.573 13.3587H96.4222L95.8852 14.4723C95.5233 15.2224 95.2457 15.5505 95.1122 15.6794C94.7259 16.059 94.2906 16.2232 93.6887 16.2232C93.1556 16.2232 93.0446 16.0426 92.9468 15.8832C92.8592 15.741 92.6018 15.1486 92.9574 13.4858C93.241 12.1322 93.6969 11.113 94.314 10.4487C94.9508 9.76388 95.5022 9.67609 95.9112 9.67609C96.3957 9.67609 96.5852 9.76499 96.6257 9.78767C96.6454 9.83342 96.7183 10.0297 96.7481 10.4839L96.8698 12.3233H98.7125H100.792L100.573 13.3587ZM116.57 3.307H111.814L111.482 4.86529L110.574 9.11891H108.646L109.378 5.68769L109.886 3.307H107.453H104.301H102.706L102.375 4.86732L102.29 5.26588C101.214 4.05802 99.4101 3.01762 96.366 3.01762C94.1489 3.01762 92.1321 3.70962 90.3574 5.0584L90.7328 3.307H88.2974H78.6646H77.1241H76.2289H75.5297H63.8874H62.2965L62.0196 4.59805C60.7274 3.43703 58.9097 2.84167 56.5838 2.84167C53.9575 2.84167 51.7383 3.58568 49.9867 5.05342C49.5111 5.41897 49.0768 5.8297 48.6707 6.27032C48.5717 6.06394 48.4648 5.86179 48.3411 5.66924C47.831 4.88041 47.1349 4.28008 46.2692 3.88096C45.4891 3.52131 44.4545 3.33375 43.1062 3.30737L43.0871 3.307H43.0679H35.9741H35.5947H34.0003H33.542H30.3066H28.7133L28.3813 4.86603L26.3865 14.2353C26.159 15.3156 25.9282 15.6918 25.863 15.7814L25.8368 15.8176L25.8121 15.8547C25.733 15.9742 25.5479 16.2541 24.6732 16.2541C24.5119 16.2541 24.3906 16.2442 24.3021 16.232C24.3023 16.0428 24.3281 15.6776 24.4599 15.0516L26.454 5.68677L26.9606 3.307H24.5287H21.8863L22.0847 2.38261L22.5957 -9.91821e-05H20.1599H6.41112H4.8168L4.48562 1.56022L0.504791 20.3162L0 22.6948H2.43033H16.6369H18.2328L18.5628 21.1324L18.5875 21.0159C19.6109 22.0581 21.3016 22.882 24.0944 22.882C26.6114 22.882 28.6744 22.2311 30.2559 20.9489L29.9291 22.4887H32.3595H35.4707H37.0669L37.3967 20.926L38.3282 16.5113H40.0186C40.0243 16.5113 40.0301 16.5113 40.0358 16.5113C40.0312 16.5363 40.0262 16.5623 40.0208 16.5891L39.7414 18.0081C39.6297 18.5649 39.5683 19.1265 39.5596 19.6712L39.5592 19.6867V19.7023C39.5592 19.9665 39.5751 20.2864 39.6074 20.6806L39.7559 22.4887H41.5693H45.073H46.7039L47.0071 20.8857L47.0796 20.5028L47.0831 20.4843C48.38 22.0926 50.4214 22.9126 53.1624 22.9126C55.7952 22.9126 58.0188 22.1651 59.7725 20.6904C61.9656 18.9515 63.4217 16.4618 64.1007 13.2899C64.3571 12.082 64.4605 10.9673 64.4178 9.94518H65.4584L63.3054 20.111L62.8018 22.4887H65.2311H68.4355H70.0307L70.3612 20.9275L72.6869 9.94518H74.1209L71.9634 20.1103L71.4584 22.4887H73.8888H85.4347H87.0309L87.3607 20.9263L87.4081 20.7018C88.465 21.8379 90.2336 22.9126 93.1516 22.9126C95.3202 22.9126 97.2691 22.2691 98.9494 21.0065L98.6349 22.4887H101.065H104.218H105.814L106.144 20.9265L107.251 15.6848H109.181L108.246 20.1121L107.744 22.4887H110.172H113.335H114.929L115.26 20.9285L118.495 5.68547L119 3.307H116.57Z" fill="#FCFCFC"/>
</g>
<defs>
<clipPath id="clip0_626_7835">
<rect width="119" height="32" fill="white"/>
</clipPath>
</defs>
</svg>
