<?xml version="1.0" encoding="utf-8"?>
<!-- Generator: Adobe Illustrator 25.0.0, SVG Export Plug-In . SVG Version: 6.00 Build 0)  -->
<svg version="1.1" id="Capa_1" xmlns="http://www.w3.org/2000/svg" xmlns:xlink="http://www.w3.org/1999/xlink" x="0px" y="0px"
	 viewBox="0 0 633 104" style="enable-background:new 0 0 633 104;" xml:space="preserve">
<style type="text/css">
	.st0{fill:#EDEDED;}
</style>
<g>
	<path class="st0" d="M100.2,57.7c-0.4-2-2.1-3.5-4.2-3.6c-1.2-0.1-2.5-0.2-3.6-0.5c-3.3-0.8-6-2.5-7.6-5.6
		c-0.9-1.6-1.2-3.3-0.7-5.1c0.3-1.2,0.5-2.2,0.7-3.4c0.3-2.4,2.1-4.1,4.4-4.4c2.2-0.3,4.1,1.8,3.5,4c-0.3,0.9-1,1.4-1.7,1.9
		c-2.5,1.8-2.7,4.7-0.5,6.7c1.4,1.3,3,1.9,4.9,1.8c1.8-0.1,3.2-0.9,4.1-2.5c0.8-1.4,0.8-2.8,0.5-4.4c-0.7-3.5-1.8-7-3.2-10.3
		c-0.7-1.8-1.5-3.5-2.5-5.1c-1.7-2.7-4.8-3.4-7.4-1.9c-1.6,0.8-2.4,2.3-2.9,4c-0.8,2.8-2.5,4.9-5.3,5.9c-0.6,0.2-1.2,0.5-1.8,0.9
		c-2,1.2-3,3.5-2.5,5.7c0.4,1.5,1.4,2.5,2.7,3.3c1.7,1,2.7,2.5,3,4.4c0.2,1.2,0.2,2.5,0.4,3.8c0.2,2.2,2,4.3,4.2,4.8
		c0.7,0.2,1.5,0.2,2.2,0.3c2.4,0.5,4,2,4.8,4.3c1.2,3.5,0,6.5-3.2,8.1c-0.3,0.2-0.7,0.2-1,0.2c-0.8-0.2-1.6-0.7-1.2-1.8
		c0.5-1.8,0.3-3.6-1-5.1c-0.8-0.8-1.8-1.3-2.8-1.6c-2.5-0.8-4.1-2.4-5.3-4.7c-0.9-1.8-1.4-3.8-1.6-5.9c-0.3-2.6-2.8-4.2-5.4-3.6
		c-2.2,0.6-3.6,2.9-2.9,5.1c0.4,1.2,1.2,1.8,2.1,2.4c0.7,0.4,1.4,0.8,1.9,1.3c1.5,1.5,1.9,3.4,2,5.4c0.1,3.1-1.2,5.6-3.5,7.4
		c-3.1,2.4-6.5,2.9-10.1,1.1c-2.1-1.1-4.7-0.4-5.9,1.6c-1.5,2.2-0.7,5.2,2.1,6c1.6,0.4,3-0.2,4.2-1.2c1.2-1,2.6-1.5,4.1-1.5
		c0.5,0.1,1.1,0.2,1.5,0.2c3.2,0.7,5.3,3.7,5.1,6.7c-0.1,1.2,0.1,2.3,0.5,3.4c0.8,1.8-0.2,3.4-2.1,3.6c-1.4,0.2-2.4-0.9-2.1-2.3
		c0.2-0.9,0.3-1.8,0.2-2.8c-0.5-2.6-3.3-4.2-5.9-3.5c-2.6,0.7-4.1,3.3-3.4,5.9c0.2,0.7,0.5,1.4,1,1.9c1,1.2,1.5,2.6,1.2,4.2
		c-0.4,3.6,3.4,6.7,6.7,5.6c5.2-1.8,9.9-4.4,14-8.1c2.7-2.3,2.8-5.4,0.8-8.1c-1.3-1.8-3.1-3.1-5.2-4.1c-0.5-0.3-1.1-0.6-1.5-1
		c-1.3-1.2-1.6-3.2-0.8-4.7c0.8-1.4,2.5-2.1,4.2-1.6c2.1,0.5,3,2,3.5,4c0.2,1.1,0.5,2.1,0.9,3.1c1.2,2.3,3.6,3.5,6.1,3
		c1.7-0.3,2.9-1.4,3.8-2.8c3.1-5.2,5.4-10.8,6.9-16.8C100.1,60.3,100.4,59,100.2,57.7z"/>
	<path class="st0" d="M18.2,71.3c-0.1-1.2-0.3-2.4,0-3.5c0.6-2.2,1.2-4.4,1.6-6.7c0.4-1.8,1.2-3.5,2.5-4.8c1.8-1.7,4-1.9,5.8-0.7
		c0.4,0.2,0.7,0.5,1,0.7c1.8,1.1,3.9,0.9,5.3-0.6c1.1-1.2,1.2-2.8,0.9-4.3c-0.5-2.5-2.8-4-5.2-3.7c-1,0.2-1.8,0.6-2.6,1.2
		c-1.3,1-2.9,1.4-4.5,1.2c-2.2-0.2-4.4-0.8-6.2-2.1c-1.8-1.2-3.2-2.8-3.7-4.9c-0.3-1.2-0.8-2.1-1.7-2.8c-3-2.4-7.4-0.8-8.3,2.9
		c-0.8,3.1-0.9,6.4-1.1,9.9c0.1,1.3,0.2,2.9,0.3,4.5c0.1,1.5,0.3,2.8,0.9,4.1C4.3,63.8,7,64.6,9,63.6c1.7-0.9,2.5-2.4,2.6-4.2
		c0.1-1.8-0.7-3.3-2.3-4.2c-1.3-0.8-1.9-1.9-1.8-3.4c0.1-1.4,1.7-2.9,3.1-2.5c2.3,0.7,3.9,2,4.9,4.2c1,2.3,0.8,4.6,0.1,6.9
		c-0.8,3.1-2.3,5.7-5.5,7.1c-2.4,1-3.1,3.1-2.8,5.3c0.5,2.8,2.9,4.7,5.5,4.6C15.9,77.3,18.5,74.4,18.2,71.3z"/>
	<path class="st0" d="M66.3,16c1,0.1,1.8-0.2,2.8-0.6c1-0.5,2-0.5,3-0.3c1.2,0.3,2.1,1.4,2.3,2.8c0.2,1.2-0.2,2.5-1.5,3.1
		c-0.5,0.2-0.8,0.5-1.2,0.8c-1.4,1.2-2,2.8-2.5,4.4c-0.6,2.4-2,3.9-4.5,4.4c-0.9,0.2-1.8,0.5-2.7,1c-2.1,1.3-3.2,3.8-2.5,6.1
		c0.7,2.4,2.8,4,5.2,4c3-0.1,5.2-1.9,5.8-4.7c0.2-1,0.4-2,1-2.8c1-1.4,2.4-2.1,3.9-2.5c2.3-0.6,3.8-2.1,4.3-4.4
		c0.4-1.5,1.3-2.6,2.7-3.4c3.5-1.8,4-5.9,1.2-8.6c-1.9-1.8-4.1-3.1-6.4-4.5c-2.8-1.7-5.8-3.2-9-4.2c-1-0.4-2.1-0.5-3.1-0.2
		c-2.1,0.6-3.6,2.7-3.3,4.9C61.8,13.9,64,15.9,66.3,16z"/>
	<path class="st0" d="M21.9,23.3c1.7,0.5,2.5,1.8,2.6,3.6c0.1,0.8,0.2,1.6,0.4,2.3c0.8,2.1,2.2,3.3,4.4,3.5c2,0.2,3.5-0.5,4.6-2.2
		c1.5-2.5,0.6-6.4-2-7.8c-0.9-0.5-1.9-0.8-2.9-1.2c-1.2-0.4-2-1.2-2.2-2.5c-0.2-1.1,0.2-1.9,1-2.6c1.2-1,2.4-1.2,3.8-0.8
		c2.1,0.5,3.8,1.8,5.2,3.5c1.1,1.1,1.7,2.4,1.5,4c0,0.5,0.1,1.1,0.2,1.6c0.6,2.5,3.4,4.4,5.8,4c3.1-0.5,4.9-3.5,4-6.5
		c-0.6-2.1-2.1-3.3-4.2-3.7c-2.5-0.4-4.8-3.2-4.5-5.7c0-1.8-0.6-3.5-1.8-4.5C36.3,6.4,33.7,6,31.5,7c-4,2-7.7,4.2-11.2,7.1
		c-1.2,1.1-2.1,2.5-2.1,4.1C18.2,20.5,19.7,22.5,21.9,23.3z"/>
	<path class="st0" d="M29.5,70.4c1.1-1.2,2.3-2.1,3.5-3.1c1-0.8,2.1-1.1,3.4-0.8c0.8,0.2,1.6,0.4,2.5,0.5c2.7,0.5,5.8-1.7,5.1-5.2
		c-0.5-2.1-2.8-3.8-5-3.4c-1.2,0.2-2.1,0.7-2.9,1.5c-0.6,0.7-1.2,1.4-2.1,1.6c-1.3,0.3-2.5,0.1-3.6-0.6c-2.1-1.2-4.7-0.5-6.1,1.2
		c-1.4,1.6-1.5,3.5-0.8,5.4c0.4,1.1,0.5,2.1,0.2,3.1c-0.8,3.3-2.5,6.2-5.2,8.4c-1.2,1-1.9,2.4-1.9,4.2c0,0.2,0.1,0.7,0.1,1.2
		c0.1,0.4,0.2,0.7,0.3,1.1c1.5,3.6,6.1,4.6,8.8,1.8c2.1-2.1,2.5-4.6,1.6-7.4C26.1,76.4,27,73.1,29.5,70.4z"/>
	<path class="st0" d="M53.5,89.7c-1.3-1.7-2.7-4.6-3.3-6.3c-0.5-1.1-0.7-4.5-0.8-6.1c0-3.9,0.4-8,3.5-10.2c2.2-1.6,5.3-2.2,7.6-0.1
		c1,0.9,2.4,1.2,3.8,0.9c2.5-0.5,3.9-2.3,3.8-4.8c-0.1-2-1-3.4-2.8-4.2c-1.3-0.6-2.7-0.6-4.1-0.2c-1.2,0.5-2.5,0.6-3.9,0.4
		c-2.8-0.5-5.2-1.8-7.1-4.1c-1.4-1.7-1.9-3.6-2.2-5.8c-0.2-1.8-1-3.5-2.7-4.4c-0.5-0.3-1.1-0.5-1.6-0.7c-1.4-0.6-2.2-2-2-3.4
		c0.2-1.5,1.6-2.6,3.1-2.7c1.7-0.1,3.1,0.5,4.2,1.6c1.8,1.7,3.1,3.8,3.8,6.1c0.3,0.8,0.3,1.7,0.2,2.5c-0.4,2.8,1.6,5.5,4.4,5.8
		c2.1,0.2,3.7-0.5,4.8-2.3c1-1.8,1-3.8-0.2-5.6c-0.6-0.9-1.5-1.4-2.5-1.9c-4.3-2.5-5.8-7.2-3.7-11.7c1.1-2.3,2.8-3.9,5.1-5
		c2.1-1.2,3.2-2.9,3.1-5.4c-0.1-1.3-1-3.3-2.9-3.8c-3.2-0.8-4.9-4-4.1-7.2c0.2-0.9,0.4-2,0.2-3C56.8,5,54,2.1,50.1,2.5
		c-3.7,0.4-6.9,3.7-6,8.1c0.5,2.8,2.3,4.6,5.1,5.4c0.7,0.2,1.4,0.5,1.9,0.9c2.4,1.8,3.1,4.4,2.8,7.2c-0.4,2.9-1.9,5.3-4.2,7.1
		c-2,1.6-4.3,2.2-6.8,2.1c-2.7-0.2-5.1,0.6-7.1,2.3c-2.5,2-5.2,2.9-8.4,2.3c-2.8-0.5-5-1.8-6.7-4c-1.2-1.4-1.5-3-1.7-4.8
		c-0.3-3.2-3.4-5.6-6.5-5.1c-2.6,0.4-4.6,2.2-5.1,4.9c-0.4,2.5,0.5,4.8,2.9,6.2c0.8,0.5,1.8,0.6,2.8,0.8c2.5,0.5,4.4,2.4,4.8,5
		c0.3,1.7,0.9,3.1,2.4,4.2c1.9,1.4,4.2,1.3,6.2-0.2c0.6-0.4,1.2-0.9,1.8-1.3c2.2-1.2,4.5-1,6.7,0.1c2.4,1.2,3.9,3,4.4,5.7
		c0.4,2.5,1.7,4.1,4.1,4.9c0.5,0.2,1.1,0.4,1.5,0.6c3,1.6,4.6,5.5,3.8,9c-0.9,4.2-4.8,7.4-9.9,7.1c-0.4,0-1.2,0-1.8,0.4
		c-2.7,0.3-4.7,2.5-4.5,5.2c0,1,0.5,2,0.8,2.9c0.9,2.6,0.4,4.8-1.5,6.8c-0.5,0.6-1.2,1.2-1.8,1.8c-2.5,2.6-2,7,1.1,8.8
		c2.8,1.8,6.5,0.6,8.1-2.5c1-2,0.8-4,0.1-6.1c-0.8-2.2-1.9-2.5-1.2-5.9c0.3-1.7,1.4-3.1,3.2-3.2c1.7-0.2,2.9,0.2,3.8,1
		c1.9,1.7,1.4,4.9,0.7,7.5c-0.3,1-0.9,2.4-1.4,3.3c-1.8,3-0.8,7,2.2,8.6c2.2,1.2,4.4,1.1,6.4-0.3c2-1.6,2.9-3.8,2.5-6.4
		C55.1,91.7,54.2,90.7,53.5,89.7z"/>
</g>
<path class="st0" d="M143.5,97.7V3.3h32L204.7,88h2.5V3.3h16.5v94.4h-32l-29.2-84.8H160v84.8H143.5z"/>
<path class="st0" d="M279.9,99.8c-7.7,0-14.4-1.6-20.1-4.8c-5.7-3.2-10.2-7.8-13.5-13.7c-3.2-5.9-4.8-12.7-4.8-20.5v-1.8
	c0-7.9,1.6-14.8,4.8-20.7c3.2-5.9,7.6-10.5,13.3-13.7c5.7-3.2,12.3-4.8,19.8-4.8c7.3,0,13.7,1.6,19.1,4.8c5.5,3.2,9.8,7.7,12.8,13.5
	c3.1,5.7,4.6,12.5,4.6,20.1v6h-58.3c0.2,6.7,2.4,12,6.7,15.9c4.3,3.9,9.6,5.9,15.9,5.9c5.9,0,10.4-1.3,13.4-4c3-2.7,5.4-5.7,7-9.2
	l13.1,6.8c-1.4,2.9-3.5,5.9-6.2,9.1c-2.7,3.2-6.3,5.8-10.7,8C292.4,98.8,286.8,99.8,279.9,99.8z M257.8,52h42
	c-0.4-5.7-2.5-10.2-6.1-13.4c-3.7-3.2-8.5-4.8-14.5-4.8c-5.9,0-10.8,1.6-14.5,4.8C260.9,41.8,258.6,46.3,257.8,52z"/>
<path class="st0" d="M362.6,99.1c-5.7,0-10.9-1.3-15.4-3.8c-4.5-2.6-8.1-6.2-10.6-10.9c-2.6-4.7-3.8-10.4-3.8-16.9V21.9h15.8v44.4
	c0,6.6,1.6,11.4,4.9,14.5c3.3,3.1,7.8,4.7,13.7,4.7c6.5,0,11.7-2.2,15.6-6.5c3.9-4.4,5.9-10.6,5.9-18.8V21.9h15.8v75.8h-15.5V86.3
	h-2.5c-1.4,3.1-4,6-7.7,8.7C375.2,97.7,369.8,99.1,362.6,99.1z"/>
<path class="st0" d="M426.6,97.7V21.9h15.5v8.9h2.5c1.2-3.2,3.2-5.5,5.9-7c2.7-1.5,6.1-2.2,10.1-2.2h9.1v14.3H460
	c-5.1,0-9.3,1.4-12.6,4.2c-3.3,2.8-4.9,7.2-4.9,13v44.6H426.6z"/>
<path class="st0" d="M506.1,99.8c-5.4,0-10.3-0.9-14.5-2.8c-4.3-1.8-7.6-4.6-10.1-8.1c-2.5-3.6-3.8-7.9-3.8-13.1
	c0-5.2,1.3-9.6,3.8-13c2.5-3.4,5.9-6,10.3-7.8c4.4-1.7,9.3-2.6,14.8-2.6h23.1v-4.9c0-4.4-1.3-7.9-4-10.6c-2.7-2.7-6.8-4-12.3-4
	c-5.4,0-9.6,1.3-12.5,3.8c-2.9,2.6-4.8,5.9-5.7,10L480.4,42c1.2-4.1,3.2-7.8,5.9-11.1c2.7-3.3,6.3-6,10.8-8.1
	c4.5-2.1,9.9-3.1,16.3-3.1c9.8,0,17.6,2.5,23.2,7.5c5.6,5,8.5,12.1,8.5,21.4v31.2c0,3.1,1.4,4.6,4.3,4.6h6.5v13.2h-11.8
	c-3.6,0-6.5-0.9-8.8-2.8c-2.3-1.8-3.4-4.4-3.4-7.5v-0.5h-2.3c-0.8,1.5-2,3.3-3.7,5.4c-1.6,2.1-4.1,3.8-7.2,5.3
	C515.5,99.1,511.3,99.8,506.1,99.8z M508.4,86.8c6.4,0,11.5-1.8,15.4-5.5c3.9-3.6,5.8-8.6,5.8-15v-1.5h-22.1
	c-4.2,0-7.6,0.9-10.1,2.7c-2.6,1.8-3.8,4.4-3.8,7.9c0,3.5,1.3,6.2,4,8.3C500.1,85.7,503.8,86.8,508.4,86.8z"/>
<path class="st0" d="M566.8,97.7V78.3l44.7-40.9v-2.2h-43.2V21.9h60.4v19.5l-44.9,40.9v2H630v13.4H566.8z"/>
</svg>
